<svg xmlns="http://www.w3.org/2000/svg" viewBox="-635 -69 977 349" width="977" height="349">
<rect x="-635" y="-69" width="977" height="349" fill="#fff"/>
<rect x="0" y="0" width="190" height="256" fill="#f3f3f3" stroke="#222" stroke-width="1.6"/>
<line x1="0" y1="28" x2="190" y2="28" stroke="#222" stroke-width="1.4"/>
<text x="95" y="19" font-family="Helvetica, Arial, sans-serif" font-size="14" font-weight="bold" text-anchor="middle" fill="#111">ORDER</text>
<text x="10" y="46" font-family="Helvetica, Arial, sans-serif" font-size="12" font-weight="normal" text-anchor="start" fill="#111">n. items</text>
<text x="10" y="64" font-family="Helvetica, Arial, sans-serif" font-size="12" font-weight="normal" text-anchor="start" fill="#111">n. sellers</text>
<text x="10" y="82" font-family="Helvetica, Arial, sans-serif" font-size="12" font-weight="normal" text-anchor="start" fill="#111">total price</text>
<text x="10" y="100" font-family="Helvetica, Arial, sans-serif" font-size="12" font-weight="normal" text-anchor="start" fill="#111">total freight</text>
<text x="10" y="118" font-family="Helvetica, Arial, sans-serif" font-size="12" font-weight="normal" text-anchor="start" fill="#111">total paid</text>
<text x="10" y="136" font-family="Helvetica, Arial, sans-serif" font-size="12" font-weight="normal" text-anchor="start" fill="#111">n. installments</text>
<text x="10" y="154" font-family="Helvetica, Arial, sans-serif" font-size="12" font-weight="normal" text-anchor="start" fill="#111">delivery days</text>
<text x="10" y="172" font-family="Helvetica, Arial, sans-serif" font-size="12" font-weight="normal" text-anchor="start" fill="#111">estimated days</text>
<text x="10" y="190" font-family="Helvetica, Arial, sans-serif" font-size="12" font-weight="normal" text-anchor="start" fill="#111">delay days</text>
<text x="10" y="208" font-family="Helvetica, Arial, sans-serif" font-size="12" font-weight="normal" text-anchor="start" fill="#111">approval hours</text>
<text x="10" y="226" font-family="Helvetica, Arial, sans-serif" font-size="12" font-weight="normal" text-anchor="start" fill="#111">carrier days</text>
<text x="10" y="244" font-family="Helvetica, Arial, sans-serif" font-size="12" font-weight="normal" text-anchor="start" fill="#111">review score</text>
<line x1="0" y1="20" x2="-60" y2="20" stroke="#222" stroke-width="1.4"/>
<circle cx="-60" cy="20" r="7" fill="#fff" stroke="#222" stroke-width="1.4"/>
<text x="-60" y="7" font-family="Helvetica, Arial, sans-serif" font-size="13" font-weight="normal" text-anchor="middle" fill="#111">purchase date</text>
<line x1="-60" y1="20" x2="-130" y2="-20" stroke="#222" stroke-width="1.4"/>
<circle cx="-130" cy="-20" r="7" fill="#fff" stroke="#222" stroke-width="1.4"/>
<text x="-130" y="-33" font-family="Helvetica, Arial, sans-serif" font-size="12" font-weight="normal" text-anchor="middle" fill="#111">day of week</text>
<line x1="-60" y1="20" x2="-192" y2="20" stroke="#222" stroke-width="1.4"/>
<circle cx="-192" cy="20" r="7" fill="#fff" stroke="#222" stroke-width="1.4"/>
<text x="-192" y="7" font-family="Helvetica, Arial, sans-serif" font-size="13" font-weight="normal" text-anchor="middle" fill="#111">month</text>
<line x1="-192" y1="20" x2="-324" y2="20" stroke="#222" stroke-width="1.4"/>
<circle cx="-324" cy="20" r="7" fill="#fff" stroke="#222" stroke-width="1.4"/>
<text x="-324" y="7" font-family="Helvetica, Arial, sans-serif" font-size="13" font-weight="normal" text-anchor="middle" fill="#111">quarter</text>
<line x1="-324" y1="20" x2="-456" y2="20" stroke="#222" stroke-width="1.4"/>
<circle cx="-456" cy="20" r="7" fill="#fff" stroke="#222" stroke-width="1.4"/>
<text x="-456" y="7" font-family="Helvetica, Arial, sans-serif" font-size="13" font-weight="normal" text-anchor="middle" fill="#111">year</text>
<line x1="0" y1="78" x2="-60" y2="78" stroke="#222" stroke-width="1.4" stroke-dasharray="6 4"/>
<circle cx="-60" cy="78" r="7" fill="#fff" stroke="#222" stroke-width="1.4"/>
<text x="-60" y="65" font-family="Helvetica, Arial, sans-serif" font-size="13" font-weight="normal" text-anchor="middle" fill="#111">delivered date</text>
<line x1="-60" y1="78" x2="-192" y2="78" stroke="#222" stroke-width="1.4"/>
<circle cx="-192" cy="78" r="7" fill="#fff" stroke="#222" stroke-width="1.4"/>
<text x="-192" y="65" font-family="Helvetica, Arial, sans-serif" font-size="13" font-weight="normal" text-anchor="middle" fill="#111">month</text>
<line x1="-192" y1="78" x2="-324" y2="78" stroke="#222" stroke-width="1.4"/>
<circle cx="-324" cy="78" r="7" fill="#fff" stroke="#222" stroke-width="1.4"/>
<text x="-324" y="65" font-family="Helvetica, Arial, sans-serif" font-size="13" font-weight="normal" text-anchor="middle" fill="#111">quarter</text>
<line x1="-324" y1="78" x2="-456" y2="78" stroke="#222" stroke-width="1.4"/>
<circle cx="-456" cy="78" r="7" fill="#fff" stroke="#222" stroke-width="1.4"/>
<text x="-456" y="65" font-family="Helvetica, Arial, sans-serif" font-size="13" font-weight="normal" text-anchor="middle" fill="#111">year</text>
<line x1="0" y1="136" x2="-60" y2="136" stroke="#222" stroke-width="1.4"/>
<circle cx="-60" cy="136" r="7" fill="#fff" stroke="#222" stroke-width="1.4"/>
<text x="-60" y="123" font-family="Helvetica, Arial, sans-serif" font-size="13" font-weight="normal" text-anchor="middle" fill="#111">estimated date</text>
<line x1="-60" y1="136" x2="-192" y2="136" stroke="#222" stroke-width="1.4"/>
<circle cx="-192" cy="136" r="7" fill="#fff" stroke="#222" stroke-width="1.4"/>
<text x="-192" y="123" font-family="Helvetica, Arial, sans-serif" font-size="13" font-weight="normal" text-anchor="middle" fill="#111">month</text>
<line x1="-192" y1="136" x2="-324" y2="136" stroke="#222" stroke-width="1.4"/>
<circle cx="-324" cy="136" r="7" fill="#fff" stroke="#222" stroke-width="1.4"/>
<text x="-324" y="123" font-family="Helvetica, Arial, sans-serif" font-size="13" font-weight="normal" text-anchor="middle" fill="#111">quarter</text>
<line x1="-324" y1="136" x2="-456" y2="136" stroke="#222" stroke-width="1.4"/>
<circle cx="-456" cy="136" r="7" fill="#fff" stroke="#222" stroke-width="1.4"/>
<text x="-456" y="123" font-family="Helvetica, Arial, sans-serif" font-size="13" font-weight="normal" text-anchor="middle" fill="#111">year</text>
<line x1="0" y1="194" x2="-60" y2="194" stroke="#222" stroke-width="1.4"/>
<circle cx="-60" cy="194" r="7" fill="#fff" stroke="#222" stroke-width="1.4"/>
<text x="-60" y="181" font-family="Helvetica, Arial, sans-serif" font-size="13" font-weight="normal" text-anchor="middle" fill="#111">customer</text>
<line x1="-60" y1="201" x2="-60" y2="216" stroke="#222" stroke-width="1.4"/>
<text x="-55" y="220" font-family="Helvetica, Arial, sans-serif" font-size="11" font-weight="normal" text-anchor="start" font-style="italic" fill="#111">n. orders</text>
<line x1="-60" y1="194" x2="-192" y2="194" stroke="#222" stroke-width="1.4"/>
<circle cx="-192" cy="194" r="7" fill="#fff" stroke="#222" stroke-width="1.4"/>
<text x="-192" y="181" font-family="Helvetica, Arial, sans-serif" font-size="13" font-weight="normal" text-anchor="middle" fill="#111">zip prefix</text>
<line x1="-192" y1="194" x2="-324" y2="194" stroke="#222" stroke-width="1.4"/>
<circle cx="-324" cy="194" r="7" fill="#fff" stroke="#222" stroke-width="1.4"/>
<text x="-324" y="181" font-family="Helvetica, Arial, sans-serif" font-size="13" font-weight="normal" text-anchor="middle" fill="#111">city</text>
<line x1="-324" y1="194" x2="-456" y2="194" stroke="#222" stroke-width="1.4"/>
<circle cx="-456" cy="194" r="7" fill="#fff" stroke="#222" stroke-width="1.4"/>
<text x="-456" y="181" font-family="Helvetica, Arial, sans-serif" font-size="13" font-weight="normal" text-anchor="middle" fill="#111">state</text>
<line x1="-456" y1="194" x2="-588" y2="194" stroke="#222" stroke-width="1.4"/>
<circle cx="-588" cy="194" r="7" fill="#fff" stroke="#222" stroke-width="1.4"/>
<text x="-588" y="181" font-family="Helvetica, Arial, sans-serif" font-size="13" font-weight="normal" text-anchor="middle" fill="#111">region</text>
<line x1="190" y1="20" x2="250" y2="20" stroke="#222" stroke-width="1.4"/>
<circle cx="250" cy="20" r="7" fill="#fff" stroke="#222" stroke-width="1.4"/>
<text x="250" y="7" font-family="Helvetica, Arial, sans-serif" font-size="13" font-weight="normal" text-anchor="middle" fill="#111">order status</text>
<line x1="190" y1="78" x2="250" y2="78" stroke="#222" stroke-width="1.4"/>
<circle cx="250" cy="78" r="7" fill="#fff" stroke="#222" stroke-width="1.4"/>
<text x="250" y="65" font-family="Helvetica, Arial, sans-serif" font-size="13" font-weight="normal" text-anchor="middle" fill="#111">payment type</text>
<line x1="190" y1="136" x2="250" y2="136" stroke="#222" stroke-width="1.4"/>
<circle cx="250" cy="136" r="7" fill="#fff" stroke="#222" stroke-width="1.4"/>
<text x="250" y="123" font-family="Helvetica, Arial, sans-serif" font-size="13" font-weight="normal" text-anchor="middle" fill="#111">order</text>
<line x1="250" y1="143" x2="250" y2="158" stroke="#222" stroke-width="1.4"/>
<text x="255" y="162" font-family="Helvetica, Arial, sans-serif" font-size="11" font-weight="normal" text-anchor="start" font-style="italic" fill="#111">is late</text>
<line x1="250" y1="143" x2="250" y2="174" stroke="#222" stroke-width="1.4"/>
<text x="255" y="178" font-family="Helvetica, Arial, sans-serif" font-size="11" font-weight="normal" text-anchor="start" font-style="italic" fill="#111">has review</text>
</svg>
